<?xml version="1.0" encoding="utf-8"?>
<!-- Generator: Adobe Illustrator 15.1.0, SVG Export Plug-In . SVG Version: 6.00 Build 0)  -->
<!DOCTYPE svg PUBLIC "-//W3C//DTD SVG 1.1//EN" "http://www.w3.org/Graphics/SVG/1.1/DTD/svg11.dtd">
<svg version="1.1" id="final_copy" xmlns="http://www.w3.org/2000/svg" xmlns:xlink="http://www.w3.org/1999/xlink" x="0px" y="0px"
	 width="42.203px" height="54.68px" viewBox="6.235 -22.531 42.203 54.68" enable-background="new 6.235 -22.531 42.203 54.68"
	 xml:space="preserve">
<title>ZIM-iconssvg</title>
<g>
	<path fill="#212B60" d="M6.235,23.687c0,4.667,3.795,8.462,8.462,8.462h25.279c4.665,0,8.462-3.795,8.462-8.462v-44.59
		c0-0.871-0.757-1.627-1.627-1.627H14.697c-4.667,0-8.462,3.797-8.462,8.462 M45.183,23.687c0,2.823-2.384,5.207-5.207,5.207H14.697
		c-2.823,0-5.207-2.384-5.207-5.207v-37.755c0-2.821,2.384-5.208,5.207-5.208h30.486V23.687z"/>
	<path fill="#212B60" d="M13.501-9.515c0,0.871,0.759,1.627,1.627,1.627h24.41c0.871,0,1.628-0.757,1.628-1.627
		c0-0.868-0.757-1.627-1.628-1.627h-24.41C14.155-11.139,13.501-10.38,13.501-9.515z"/>
	<path fill="#212B60" d="M39.538-3.654h-24.41c-0.868,0-1.627,0.759-1.627,1.627c0,0.871,0.759,1.627,1.627,1.627h24.41
		c0.871,0,1.628-0.757,1.628-1.627C41.166-2.894,40.409-3.654,39.538-3.654z"/>
	<path fill="#212B60" d="M39.538,3.832h-24.41c-0.868,0-1.627,0.757-1.627,1.627c0,0.868,0.759,1.627,1.627,1.627h24.41
		c0.871,0,1.628-0.759,1.628-1.627C41.166,4.589,40.409,3.832,39.538,3.832z"/>
	<path fill="#212B60" d="M23.593,12.62l-5.858,8.354l-2.606-3.905c-0.54-0.76-1.519-0.977-2.275-0.435
		c-0.76,0.546-0.979,1.52-0.435,2.278l3.906,5.859c0.325,0.431,0.757,0.756,1.302,0.756s0.977-0.217,1.302-0.647l7.16-10.31
		c0.435-0.757,0.326-1.628-0.434-2.167C25.113,11.752,24.136,11.861,23.593,12.62z"/>
</g>
<g>
	<path fill="#FFFFFF" d="M6.235,23.687c0,4.667,3.795,8.462,8.462,8.462h25.279c4.665,0,8.462-3.795,8.462-8.462v-44.59
		c0-0.871-0.757-1.627-1.627-1.627H14.697c-4.667,0-8.462,3.797-8.462,8.462 M45.183,23.687c0,2.823-2.384,5.207-5.207,5.207H14.697
		c-2.823,0-5.207-2.384-5.207-5.207v-37.755c0-2.821,2.384-5.208,5.207-5.208h30.486V23.687z"/>
	<path fill="#FFFFFF" d="M13.501-9.515c0,0.871,0.759,1.627,1.627,1.627h24.41c0.871,0,1.628-0.757,1.628-1.627
		c0-0.868-0.757-1.627-1.628-1.627h-24.41C14.155-11.139,13.501-10.38,13.501-9.515z"/>
	<path fill="#FFFFFF" d="M39.538-3.654h-24.41c-0.868,0-1.627,0.759-1.627,1.627c0,0.871,0.759,1.627,1.627,1.627h24.41
		c0.871,0,1.628-0.757,1.628-1.627C41.166-2.894,40.409-3.654,39.538-3.654z"/>
	<path fill="#FFFFFF" d="M39.538,3.832h-24.41c-0.868,0-1.627,0.757-1.627,1.627c0,0.868,0.759,1.627,1.627,1.627h24.41
		c0.871,0,1.628-0.759,1.628-1.627C41.166,4.589,40.409,3.832,39.538,3.832z"/>
	<path fill="#FFFFFF" d="M23.593,12.62l-5.858,8.354l-2.606-3.905c-0.54-0.76-1.519-0.977-2.275-0.435
		c-0.76,0.546-0.979,1.52-0.435,2.278l3.906,5.859c0.325,0.431,0.757,0.756,1.302,0.756s0.977-0.217,1.302-0.647l7.16-10.31
		c0.435-0.757,0.326-1.628-0.434-2.167C25.113,11.752,24.136,11.861,23.593,12.62z"/>
</g>
</svg>
