<svg xmlns="http://www.w3.org/2000/svg" viewBox="0 0 33.7 42.9">
  <g>
    <path d="M26,41.4H7.7a6.2,6.2,0,0,1-6.2-6.2V7.8A6.2,6.2,0,0,1,7.7,1.6H31a1.3,1.3,0,0,1,1.2,1.2V35.2A6.2,6.2,0,0,1,26,41.4Z" fill="none" stroke="#5d87ff" stroke-miterlimit="10" stroke-width="3"/>
    <path d="M25.7,12.3H8A1.2,1.2,0,1,1,8,9.9H25.7a1.3,1.3,0,0,1,1.2,1.2A1.3,1.3,0,0,1,25.7,12.3Z" fill="#5d87ff"/>
    <path d="M25.7,17.7H8a1.2,1.2,0,0,1-1.2-1.2A1.2,1.2,0,0,1,8,15.3H25.7a1.3,1.3,0,0,1,1.2,1.2A1.2,1.2,0,0,1,25.7,17.7Z" fill="#5d87ff"/>
    <path d="M25.7,23.2H8A1.2,1.2,0,0,1,6.8,22,1.2,1.2,0,0,1,8,20.8H25.7A1.2,1.2,0,0,1,26.9,22,1.3,1.3,0,0,1,25.7,23.2Z" fill="#5d87ff"/>
    <path d="M9.9,36.5h0a1.1,1.1,0,0,1-1-.6L6.1,31.7A1.2,1.2,0,0,1,6.4,30a1.1,1.1,0,0,1,1.6.3l1.9,2.9,4.2-6.1a1.2,1.2,0,0,1,1.7-.2,1.3,1.3,0,0,1,.3,1.5L10.9,36A1.4,1.4,0,0,1,9.9,36.5Z" fill="#5d87ff"/>
  </g>
</svg>
