<?xml version="1.0" encoding="utf-8"?>
<!-- Generator: Adobe Illustrator 16.2.0, SVG Export Plug-In . SVG Version: 6.00 Build 0)  -->
<!DOCTYPE svg PUBLIC "-//W3C//DTD SVG 1.1//EN" "http://www.w3.org/Graphics/SVG/1.1/DTD/svg11.dtd">
<svg version="1.1" id="Слой_1" xmlns="http://www.w3.org/2000/svg" xmlns:xlink="http://www.w3.org/1999/xlink" x="0px" y="0px"
	 width="36.12px" height="34.371px" viewBox="0 0 36.12 34.371" enable-background="new 0 0 36.12 34.371" xml:space="preserve">
<g>
	<defs>
		<rect id="SVGID_1_" x="-777.939" y="-18" width="1440" height="72"/>
	</defs>
	<clipPath id="SVGID_2_">
		<use xlink:href="#SVGID_1_"  overflow="visible"/>
	</clipPath>
	<g clip-path="url(#SVGID_2_)">
		<defs>
			<rect id="SVGID_3_" x="-777.939" y="-187" width="1440" height="250"/>
		</defs>
		<clipPath id="SVGID_4_">
			<use xlink:href="#SVGID_3_"  overflow="visible"/>
		</clipPath>
		<g clip-path="url(#SVGID_4_)">
			<path fill="#FFFFFF" d="M51.36,14.814c1.065-1.484,1.89-3.435,1.89-6.135c0-2.685-0.81-4.604-1.89-6.089h1.021
				c0.959,1.229,1.965,3.149,1.965,6.104c0,2.939-1.006,4.845-1.965,6.119H51.36z"/>
			<path fill="#FFFFFF" d="M58.756,14.29v-1.515c-0.871-0.016-1.771-0.285-2.295-0.66l0.359-1.005c0.54,0.359,1.32,0.645,2.16,0.645
				c1.064,0,1.785-0.615,1.785-1.47c0-0.825-0.586-1.335-1.695-1.785c-1.53-0.6-2.475-1.29-2.475-2.595
				c0-1.245,0.885-2.189,2.265-2.415V1.976h0.93v1.455c0.899,0.029,1.515,0.27,1.95,0.524l-0.375,0.99
				c-0.314-0.18-0.93-0.51-1.891-0.51c-1.154,0-1.59,0.689-1.59,1.29c0,0.779,0.556,1.17,1.86,1.71
				c1.545,0.63,2.325,1.409,2.325,2.744c0,1.186-0.825,2.295-2.37,2.551v1.56H58.756z"/>
			<path fill="#FFFFFF" d="M66.885,4.48h-0.029L65.16,5.396l-0.255-1.005l2.13-1.141h1.125V13h-1.275V4.48z"/>
			<path fill="#FFFFFF" d="M78.675,13c-0.285-0.285-0.556-0.57-0.944-0.99c-0.871,0.811-1.846,1.155-2.955,1.155
				c-1.965,0-3.105-1.32-3.105-2.835c0-1.38,0.825-2.325,1.98-2.955V7.33c-0.525-0.66-0.84-1.395-0.84-2.115
				c0-1.229,0.885-2.489,2.564-2.489c1.26,0,2.234,0.84,2.234,2.145c0,1.065-0.615,1.905-2.219,2.7v0.045
				c0.854,0.99,1.814,2.1,2.459,2.82c0.465-0.705,0.78-1.681,0.975-2.955h1.201c-0.271,1.59-0.705,2.85-1.455,3.734
				c0.539,0.57,1.064,1.141,1.664,1.785H78.675z M77.085,11.26c-0.601-0.66-1.726-1.89-2.851-3.18
				c-0.539,0.345-1.305,0.99-1.305,2.055c0,1.155,0.855,2.04,2.07,2.04C75.87,12.175,76.605,11.785,77.085,11.26z M74.01,5.096
				c0,0.72,0.33,1.274,0.766,1.814c1.02-0.585,1.68-1.125,1.68-1.979c0-0.615-0.346-1.306-1.17-1.306
				C74.445,3.625,74.01,4.315,74.01,5.096z"/>
			<path fill="#FFFFFF" d="M83.715,14.29v-1.515c-0.87-0.016-1.77-0.285-2.295-0.66l0.359-1.005c0.541,0.359,1.32,0.645,2.16,0.645
				c1.065,0,1.785-0.615,1.785-1.47c0-0.825-0.585-1.335-1.695-1.785c-1.529-0.6-2.475-1.29-2.475-2.595
				c0-1.245,0.885-2.189,2.266-2.415V1.976h0.93v1.455c0.899,0.029,1.515,0.27,1.949,0.524l-0.375,0.99
				c-0.314-0.18-0.93-0.51-1.89-0.51c-1.155,0-1.59,0.689-1.59,1.29c0,0.779,0.556,1.17,1.86,1.71
				c1.545,0.63,2.324,1.409,2.324,2.744c0,1.186-0.824,2.295-2.369,2.551v1.56H83.715z"/>
			<path fill="#FFFFFF" d="M92.265,2.591c-1.095,1.47-1.89,3.42-1.89,6.135c0,2.67,0.824,4.59,1.89,6.089h-1.035
				c-0.944-1.244-1.965-3.164-1.965-6.089c0.015-2.955,1.021-4.875,1.965-6.135H92.265z"/>
			<path fill="#FFFFFF" d="M97.68,5.021v3.524h3.39v0.9h-3.39V13h-0.961V9.445H93.33v-0.9h3.389V5.021H97.68z"/>
			<path fill="#FFFFFF" d="M102.06,14.845c0.33-0.885,0.735-2.489,0.9-3.585l1.47-0.149c-0.345,1.274-1.005,2.939-1.425,3.645
				L102.06,14.845z"/>
			<path fill="#FFFFFF" d="M105.93,12.235c0-0.54,0.375-0.931,0.885-0.931c0.54,0,0.885,0.391,0.885,0.931
				c0,0.524-0.345,0.93-0.885,0.93C106.289,13.165,105.93,12.76,105.93,12.235z M106.305,10.09l-0.211-7.199h1.44l-0.21,7.199
				H106.305z"/>
			<path fill="#FFFFFF" d="M110.084,13l0.391-2.939h-1.23V9.175h1.365L110.895,7h-1.29V6.115h1.425l0.391-2.865h0.869l-0.375,2.865
				h1.561l0.39-2.865h0.885l-0.375,2.865h1.229V7h-1.364l-0.271,2.175h1.291v0.886h-1.426L113.444,13h-0.899l0.389-2.939h-1.559
				L110.984,13H110.084z M113.069,9.175L113.354,7h-1.56l-0.285,2.175H113.069z"/>
			<path fill="#FFFFFF" d="M117.089,12.22c0-0.555,0.375-0.944,0.9-0.944c0.524,0,0.885,0.39,0.885,0.944
				c0,0.54-0.345,0.945-0.899,0.945C117.449,13.165,117.089,12.76,117.089,12.22z"/>
			<path fill="#FFFFFF" d="M120.254,13v-0.81l1.035-1.005c2.49-2.37,3.615-3.63,3.63-5.101c0-0.989-0.479-1.904-1.935-1.904
				c-0.885,0-1.62,0.449-2.07,0.824l-0.42-0.93c0.675-0.569,1.635-0.99,2.76-0.99c2.1,0,2.984,1.44,2.984,2.835
				c0,1.801-1.305,3.255-3.359,5.235l-0.779,0.72v0.03h4.379V13H120.254z"/>
			<path fill="#FFFFFF" d="M128.113,13v-0.81l1.035-1.005c2.49-2.37,3.615-3.63,3.631-5.101c0-0.989-0.48-1.904-1.936-1.904
				c-0.885,0-1.619,0.449-2.07,0.824l-0.42-0.93c0.676-0.569,1.635-0.99,2.76-0.99c2.101,0,2.985,1.44,2.985,2.835
				c0,1.801-1.305,3.255-3.36,5.235l-0.779,0.72v0.03h4.38V13H128.113z"/>
			<path fill="#FFFFFF" d="M136.078,12.22c0-0.555,0.375-0.944,0.9-0.944s0.885,0.39,0.885,0.944c0,0.54-0.346,0.945-0.9,0.945
				C136.438,13.165,136.078,12.76,136.078,12.22z"/>
			<path fill="#FFFFFF" d="M143.503,3.235l-1.425,1.875v0.03l2.266-0.301V5.86l-2.266-0.271v0.03l1.439,1.8l-0.944,0.54l-0.899-2.1
				h-0.031l-0.975,2.115l-0.854-0.54l1.425-1.83v-0.03l-2.22,0.285V4.84l2.204,0.285V5.096l-1.409-1.83l0.915-0.525l0.93,2.085h0.03
				l0.915-2.1L143.503,3.235z"/>
			<path fill="#FFFFFF" d="M145.948,11.485c0.375,0.239,1.245,0.614,2.16,0.614c1.694,0,2.22-1.079,2.205-1.89
				c-0.015-1.365-1.245-1.95-2.521-1.95h-0.734V7.271h0.734c0.961,0,2.176-0.495,2.176-1.65c0-0.78-0.496-1.47-1.711-1.47
				c-0.779,0-1.529,0.345-1.949,0.645l-0.346-0.96c0.511-0.375,1.5-0.75,2.551-0.75c1.92,0,2.789,1.141,2.789,2.325
				c0,1.005-0.6,1.86-1.799,2.295v0.03c1.199,0.24,2.174,1.14,2.174,2.505c0,1.56-1.215,2.925-3.555,2.925
				c-1.095,0-2.055-0.345-2.535-0.66L145.948,11.485z"/>
		</g>
		<g clip-path="url(#SVGID_4_)">
			<path fill="#FFFFFF" d="M55.815,32v-2.655h-4.53v-0.869l4.35-6.226h1.426v6.061h1.365v1.034h-1.365V32H55.815z M55.815,28.311
				v-3.255c0-0.511,0.015-1.021,0.045-1.53h-0.045c-0.3,0.57-0.54,0.99-0.81,1.439l-2.385,3.315v0.03H55.815z"/>
			<path fill="#FFFFFF" d="M65.415,23.36h-3.72l-0.375,2.505c0.225-0.03,0.436-0.06,0.795-0.06c0.75,0,1.5,0.165,2.1,0.524
				c0.766,0.436,1.396,1.275,1.396,2.505c0,1.905-1.515,3.33-3.63,3.33c-1.064,0-1.965-0.3-2.43-0.6l0.33-1.005
				C60.285,30.8,61.08,31.1,61.965,31.1c1.246,0,2.311-0.81,2.311-2.114c-0.016-1.26-0.855-2.16-2.805-2.16
				c-0.555,0-0.99,0.06-1.351,0.105l0.63-4.681h4.665V23.36z"/>
			<path fill="#FFFFFF" d="M67.545,31.22c0-0.555,0.375-0.944,0.9-0.944s0.885,0.39,0.885,0.944c0,0.54-0.346,0.945-0.9,0.945
				C67.905,32.165,67.545,31.76,67.545,31.22z"/>
			<path fill="#FFFFFF" d="M72.104,21.726l-0.255,3.6h-0.811l-0.239-3.6H72.104z M74.34,21.726l-0.256,3.6h-0.795l-0.254-3.6H74.34z
				"/>
			<path fill="#FFFFFF" d="M78.525,33.29v-1.515c-0.871-0.016-1.771-0.285-2.295-0.66l0.359-1.005c0.54,0.359,1.32,0.645,2.16,0.645
				c1.064,0,1.785-0.615,1.785-1.47c0-0.825-0.586-1.335-1.695-1.785c-1.53-0.6-2.475-1.29-2.475-2.595
				c0-1.245,0.885-2.189,2.265-2.415v-1.515h0.93v1.455c0.899,0.029,1.515,0.27,1.95,0.524l-0.375,0.99
				c-0.314-0.18-0.93-0.51-1.891-0.51c-1.154,0-1.59,0.689-1.59,1.29c0,0.779,0.556,1.17,1.86,1.71
				c1.545,0.63,2.325,1.409,2.325,2.744c0,1.186-0.825,2.295-2.37,2.551v1.56H78.525z"/>
			<path fill="#FFFFFF" d="M83.34,33.845c0.33-0.885,0.734-2.489,0.9-3.585l1.469-0.149c-0.344,1.274-1.004,2.939-1.424,3.645
				L83.34,33.845z"/>
			<path fill="#FFFFFF" d="M92.609,23.181c-0.271-0.016-0.615,0-0.99,0.06c-2.07,0.345-3.165,1.86-3.391,3.465h0.045
				c0.466-0.615,1.275-1.125,2.355-1.125c1.725,0,2.939,1.245,2.939,3.15c0,1.784-1.215,3.435-3.239,3.435
				c-2.085,0-3.45-1.62-3.45-4.155c0-1.92,0.69-3.435,1.65-4.395c0.81-0.795,1.89-1.29,3.119-1.439
				c0.391-0.061,0.721-0.075,0.961-0.075V23.181z M92.234,28.805c0-1.395-0.795-2.234-2.01-2.234c-0.795,0-1.531,0.495-1.891,1.2
				c-0.09,0.149-0.15,0.345-0.15,0.585c0.03,1.604,0.766,2.79,2.146,2.79C91.469,31.146,92.234,30.2,92.234,28.805z"/>
			<path fill="#FFFFFF" d="M101.699,32c-0.285-0.285-0.556-0.57-0.945-0.99c-0.87,0.811-1.846,1.155-2.955,1.155
				c-1.965,0-3.105-1.32-3.105-2.835c0-1.38,0.826-2.325,1.98-2.955V26.33c-0.525-0.66-0.84-1.395-0.84-2.115
				c0-1.229,0.885-2.489,2.564-2.489c1.26,0,2.235,0.84,2.235,2.145c0,1.065-0.615,1.905-2.22,2.7v0.045
				c0.854,0.99,1.814,2.1,2.459,2.82c0.466-0.705,0.781-1.681,0.976-2.955h1.2c-0.27,1.59-0.705,2.85-1.455,3.734
				c0.54,0.57,1.064,1.141,1.665,1.785H101.699z M100.109,30.26c-0.601-0.66-1.726-1.89-2.851-3.18
				c-0.54,0.345-1.305,0.99-1.305,2.055c0,1.155,0.854,2.04,2.069,2.04C98.895,31.175,99.629,30.785,100.109,30.26z M97.033,24.096
				c0,0.72,0.33,1.274,0.766,1.814c1.02-0.585,1.68-1.125,1.68-1.979c0-0.615-0.345-1.306-1.17-1.306
				C97.469,22.625,97.033,23.315,97.033,24.096z"/>
			<path fill="#FFFFFF" d="M110.459,22.25v0.87L106.214,32h-1.364l4.229-8.625v-0.029h-4.771V22.25H110.459z"/>
			<path fill="#FFFFFF" d="M116.264,24.021v3.524h3.391v0.9h-3.391V32h-0.96v-3.555h-3.39v-0.9h3.39v-3.524H116.264z"/>
			<path fill="#FFFFFF" d="M123.674,33.29v-1.515c-0.87-0.016-1.77-0.285-2.295-0.66l0.359-1.005c0.541,0.359,1.32,0.645,2.16,0.645
				c1.065,0,1.785-0.615,1.785-1.47c0-0.825-0.585-1.335-1.695-1.785c-1.529-0.6-2.475-1.29-2.475-2.595
				c0-1.245,0.885-2.189,2.266-2.415v-1.515h0.93v1.455c0.899,0.029,1.515,0.27,1.949,0.524l-0.375,0.99
				c-0.314-0.18-0.93-0.51-1.89-0.51c-1.155,0-1.59,0.689-1.59,1.29c0,0.779,0.556,1.17,1.86,1.71
				c1.545,0.63,2.324,1.409,2.324,2.744c0,1.186-0.824,2.295-2.369,2.551v1.56H123.674z"/>
		</g>
		<g clip-path="url(#SVGID_4_)">
			<path fill="#37489F" d="M12.341,34.371c-0.555,0-1.09-0.23-1.467-0.634L0.532,22.689c-0.364-0.39-0.553-0.897-0.53-1.43
				c0.023-0.538,0.258-1.034,0.661-1.397L22.716,0h6.616l6.788,7.226l-0.344,6.739L13.701,33.849
				C13.327,34.186,12.844,34.371,12.341,34.371z M23.483,2L2.001,21.349l10.34,11.022c0.013,0,0.02-0.006,0.022-0.009l21.458-19.327
				l0.258-5.062L28.399,2H23.483z"/>
		</g>
	</g>
</g>
<g>
	<defs>
		<rect id="SVGID_5_" x="-777.939" y="-18" width="1440" height="72"/>
	</defs>
	<clipPath id="SVGID_6_">
		<use xlink:href="#SVGID_5_"  overflow="visible"/>
	</clipPath>
	<g clip-path="url(#SVGID_6_)">
		<defs>
			<path id="SVGID_7_" d="M12.813,21.983c-0.324-0.323-0.384-1.059-0.108-1.333c0.338-0.339,0.29-0.937-0.108-1.334
				c-0.397-0.398-0.995-0.446-1.333-0.108c-0.735,0.734-0.795,2.069-0.268,3.151l-0.742,0.742c-0.338,0.338-0.29,0.936,0.108,1.333
				c0.397,0.398,0.995,0.447,1.334,0.108l0.741-0.742c1.082,0.528,2.417,0.468,3.151-0.267c0.919-0.92,0.586-2.423,0.291-3.749
				c-0.196-0.887-0.419-1.891-0.11-2.199c0.275-0.275,1.01-0.216,1.334,0.108c0.316,0.316,0.377,1.064,0.107,1.333
				c-0.338,0.339-0.289,0.937,0.108,1.334c0.398,0.398,0.995,0.446,1.334,0.108c0.734-0.734,0.795-2.069,0.268-3.151l0.741-0.742
				c0.339-0.338,0.29-0.936-0.107-1.334c-0.398-0.397-0.996-0.446-1.334-0.107l-0.742,0.742c-1.082-0.528-2.416-0.468-3.151,0.267
				c-0.922,0.922-0.587,2.428-0.293,3.757c0.196,0.884,0.419,1.886,0.113,2.191C13.878,22.361,13.13,22.3,12.813,21.983z"/>
		</defs>
		<clipPath id="SVGID_8_">
			<use xlink:href="#SVGID_7_"  overflow="visible"/>
		</clipPath>
		<g clip-path="url(#SVGID_8_)">
			<defs>
				<rect id="SVGID_9_" x="-777.939" y="-187" width="1440" height="250"/>
			</defs>
			<clipPath id="SVGID_10_">
				<use xlink:href="#SVGID_9_"  overflow="visible"/>
			</clipPath>
			<g clip-path="url(#SVGID_10_)">
				
					<rect x="6.9" y="8.339" transform="matrix(-0.7071 -0.7071 0.7071 -0.7071 11.5076 44.4443)" fill="#37489F" width="16.117" height="23"/>
			</g>
		</g>
	</g>
</g>
<g>
	<defs>
		<rect id="SVGID_11_" x="-777.939" y="-18" width="1440" height="72"/>
	</defs>
	<clipPath id="SVGID_12_">
		<use xlink:href="#SVGID_11_"  overflow="visible"/>
	</clipPath>
	<g clip-path="url(#SVGID_12_)">
		<defs>
			<path id="SVGID_13_" d="M26.467,10.507c-0.05,0.05-0.1,0.05-0.1,0.1c-0.451,0.301-1.103,0.251-1.503-0.15
				c-0.2-0.25-0.301-0.5-0.301-0.801s0.15-0.602,0.351-0.802s0.501-0.301,0.802-0.301c0.25,0,0.501,0.05,0.651,0.2
				c0.05,0.051,0.1,0.101,0.149,0.15C26.968,9.354,26.918,10.105,26.467,10.507z M26.367,7.101C26.166,7.05,25.916,7,25.716,7
				c-0.651,0-1.303,0.25-1.804,0.701c-0.501,0.501-0.802,1.152-0.852,1.854c0,0.701,0.25,1.402,0.701,1.903
				c0.501,0.552,1.202,0.852,1.954,0.852c0.25,0,0.45-0.05,0.651-0.1c0.4-0.101,0.801-0.301,1.151-0.602
				c1.053-1.002,1.152-2.654,0.15-3.757C27.269,7.501,26.817,7.25,26.367,7.101z"/>
		</defs>
		<clipPath id="SVGID_14_">
			<use xlink:href="#SVGID_13_"  overflow="visible"/>
		</clipPath>
		<g clip-path="url(#SVGID_14_)">
			<defs>
				<rect id="SVGID_15_" x="-777.939" y="-187" width="1440" height="250"/>
			</defs>
			<clipPath id="SVGID_16_">
				<use xlink:href="#SVGID_15_"  overflow="visible"/>
			</clipPath>
			<g clip-path="url(#SVGID_16_)">
				<rect x="18.061" y="2" fill="#37489F" width="15.307" height="15.31"/>
			</g>
		</g>
	</g>
</g>
</svg>
