<?xml version="1.0" encoding="utf-8"?>
<!-- Generator: Adobe Illustrator 16.0.3, SVG Export Plug-In . SVG Version: 6.00 Build 0)  -->
<!DOCTYPE svg PUBLIC "-//W3C//DTD SVG 1.1//EN" "http://www.w3.org/Graphics/SVG/1.1/DTD/svg11.dtd">
<svg version="1.1" id="Шар_1" xmlns="http://www.w3.org/2000/svg" xmlns:xlink="http://www.w3.org/1999/xlink" x="0px" y="0px"
	 width="36.12px" height="34.371px" viewBox="0 0 36.12 34.371" enable-background="new 0 0 36.12 34.371" xml:space="preserve">
<g>
	<path fill="#FFFFFF" d="M12.341,34.371c-0.555,0-1.09-0.23-1.467-0.634L0.532,22.689c-0.364-0.39-0.553-0.897-0.53-1.43
		c0.023-0.538,0.258-1.034,0.661-1.397L22.716,0h6.616l6.788,7.225l-0.344,6.74L13.701,33.849
		C13.327,34.186,12.844,34.371,12.341,34.371z M23.483,2L2.001,21.349l10.34,11.022c0.013,0,0.02-0.006,0.022-0.009l21.458-19.328
		l0.258-5.061L28.399,2H23.483z"/>
</g>
<g>
	<defs>
		<path id="SVGID_1_" d="M12.813,21.983c-0.324-0.323-0.384-1.059-0.108-1.333c0.338-0.339,0.29-0.937-0.108-1.334
			c-0.397-0.398-0.995-0.446-1.333-0.108c-0.735,0.734-0.795,2.069-0.268,3.151l-0.742,0.742c-0.338,0.338-0.29,0.936,0.108,1.333
			c0.397,0.398,0.995,0.447,1.334,0.108l0.741-0.742c1.082,0.528,2.417,0.468,3.151-0.267c0.919-0.92,0.586-2.423,0.291-3.749
			c-0.196-0.887-0.419-1.891-0.11-2.199c0.275-0.275,1.01-0.216,1.334,0.108c0.316,0.316,0.377,1.064,0.107,1.333
			c-0.338,0.339-0.289,0.937,0.108,1.334c0.398,0.398,0.995,0.446,1.334,0.108c0.734-0.734,0.795-2.069,0.268-3.151l0.741-0.742
			c0.339-0.338,0.29-0.936-0.107-1.334c-0.398-0.397-0.996-0.446-1.334-0.107l-0.742,0.742c-1.082-0.528-2.416-0.468-3.151,0.267
			c-0.922,0.922-0.587,2.428-0.293,3.757c0.196,0.884,0.419,1.886,0.113,2.191C13.878,22.361,13.13,22.3,12.813,21.983z"/>
	</defs>
	<clipPath id="SVGID_2_">
		<use xlink:href="#SVGID_1_"  overflow="visible"/>
	</clipPath>
	<g clip-path="url(#SVGID_2_)">
		<defs>
			<rect id="SVGID_3_" x="-747.939" y="-18" width="1440" height="72"/>
		</defs>
		<clipPath id="SVGID_4_">
			<use xlink:href="#SVGID_3_"  overflow="visible"/>
		</clipPath>
		<g clip-path="url(#SVGID_4_)">
			
				<rect x="6.9" y="8.339" transform="matrix(-0.7071 -0.7071 0.7071 -0.7071 11.5076 44.4443)" fill="#FFFFFF" width="16.117" height="23"/>
		</g>
	</g>
</g>
<g>
	<defs>
		<path id="SVGID_5_" d="M26.467,10.507c-0.05,0.05-0.1,0.05-0.1,0.1c-0.451,0.301-1.103,0.251-1.503-0.15
			c-0.2-0.25-0.301-0.5-0.301-0.801s0.15-0.602,0.351-0.802s0.501-0.301,0.802-0.301c0.25,0,0.501,0.05,0.651,0.2
			c0.05,0.051,0.1,0.101,0.149,0.15C26.968,9.354,26.918,10.105,26.467,10.507z M26.367,7.101C26.166,7.05,25.916,7,25.716,7
			c-0.651,0-1.303,0.25-1.804,0.701c-0.501,0.501-0.802,1.152-0.852,1.854c0,0.701,0.25,1.402,0.701,1.903
			c0.501,0.552,1.202,0.852,1.954,0.852c0.25,0,0.45-0.05,0.651-0.1c0.4-0.101,0.801-0.301,1.151-0.602
			c1.053-1.002,1.152-2.654,0.15-3.757C27.269,7.501,26.817,7.25,26.367,7.101z"/>
	</defs>
	<clipPath id="SVGID_6_">
		<use xlink:href="#SVGID_5_"  overflow="visible"/>
	</clipPath>
	<g clip-path="url(#SVGID_6_)">
		<defs>
			<rect id="SVGID_7_" x="-747.939" y="-18" width="1440" height="72"/>
		</defs>
		<clipPath id="SVGID_8_">
			<use xlink:href="#SVGID_7_"  overflow="visible"/>
		</clipPath>
		<g clip-path="url(#SVGID_8_)">
			<rect x="18.061" y="2" fill="#FFFFFF" width="15.307" height="15.31"/>
		</g>
	</g>
</g>
</svg>
