<?xml version="1.0" encoding="utf-8"?>
<!-- Generator: Adobe Illustrator 16.2.0, SVG Export Plug-In . SVG Version: 6.00 Build 0)  -->
<!DOCTYPE svg PUBLIC "-//W3C//DTD SVG 1.1//EN" "http://www.w3.org/Graphics/SVG/1.1/DTD/svg11.dtd">
<svg version="1.1" id="Слой_1" xmlns="http://www.w3.org/2000/svg" xmlns:xlink="http://www.w3.org/1999/xlink" x="0px" y="0px"
	 width="19.983px" height="19.842px" viewBox="0 0 19.983 19.842" enable-background="new 0 0 19.983 19.842" xml:space="preserve">
<g>
	<defs>
		<path id="SVGID_1_" d="M18.505,9.915c-0.001,0.416-0.028,0.83-0.084,1.243c0.009-0.064,0.018-0.13,0.026-0.195
			c-0.11,0.798-0.325,1.579-0.64,2.322c0.025-0.059,0.05-0.117,0.075-0.175c-0.313,0.731-0.72,1.421-1.209,2.05
			c0.038-0.049,0.077-0.1,0.115-0.148c-0.485,0.621-1.048,1.179-1.674,1.66c0.05-0.037,0.1-0.076,0.149-0.115
			c-0.632,0.483-1.322,0.885-2.057,1.194c0.06-0.024,0.118-0.05,0.177-0.073c-0.751,0.313-1.541,0.527-2.349,0.637
			c0.065-0.01,0.131-0.018,0.196-0.026c-0.823,0.108-1.657,0.108-2.48,0c0.065,0.009,0.131,0.017,0.196,0.026
			c-0.808-0.109-1.598-0.324-2.35-0.637c0.059,0.023,0.117,0.049,0.177,0.073c-0.734-0.31-1.426-0.711-2.058-1.194
			c0.05,0.039,0.1,0.078,0.149,0.115c-0.626-0.481-1.189-1.039-1.675-1.66c0.038,0.049,0.076,0.1,0.115,0.148
			c-0.489-0.629-0.896-1.318-1.209-2.05c0.024,0.058,0.05,0.116,0.074,0.175c-0.313-0.743-0.528-1.523-0.639-2.322
			c0.009,0.065,0.018,0.13,0.026,0.195c-0.111-0.825-0.111-1.661,0-2.486c-0.009,0.065-0.018,0.13-0.026,0.195
			c0.11-0.798,0.325-1.579,0.64-2.322C2.148,6.603,2.124,6.662,2.099,6.72c0.313-0.732,0.72-1.42,1.21-2.05
			C3.27,4.72,3.231,4.769,3.192,4.819c0.486-0.62,1.049-1.177,1.675-1.657c-0.05,0.038-0.1,0.076-0.149,0.115
			c0.632-0.482,1.323-0.882,2.057-1.19c-0.059,0.025-0.117,0.05-0.177,0.074c0.753-0.313,1.543-0.526,2.351-0.634
			C8.883,1.535,8.817,1.544,8.752,1.553c0.823-0.108,1.658-0.108,2.481,0c-0.065-0.009-0.131-0.018-0.196-0.026
			c0.808,0.108,1.597,0.322,2.349,0.634c-0.059-0.024-0.118-0.049-0.177-0.074c0.733,0.308,1.425,0.709,2.057,1.19
			c-0.051-0.038-0.101-0.076-0.15-0.115c0.626,0.481,1.188,1.037,1.675,1.657c-0.039-0.049-0.077-0.099-0.116-0.148
			c0.49,0.629,0.896,1.317,1.209,2.049c-0.025-0.058-0.05-0.116-0.075-0.175c0.314,0.743,0.529,1.524,0.64,2.322
			c-0.009-0.065-0.018-0.13-0.026-0.195C18.477,9.085,18.504,9.499,18.505,9.915c0.001,0.4,0.336,0.733,0.739,0.733
			c0.402,0,0.74-0.333,0.739-0.733c-0.003-1.284-0.249-2.575-0.75-3.76c-0.447-1.058-1.05-2.019-1.821-2.876
			c-1.413-1.572-3.373-2.678-5.457-3.081c-2.228-0.432-4.539-0.109-6.56,0.916c-1.885,0.955-3.454,2.553-4.379,4.44
			c-1.16,2.367-1.345,5.164-0.454,7.65c0.754,2.103,2.204,3.899,4.099,5.101c1.838,1.166,4.088,1.699,6.258,1.486
			c1.146-0.111,2.238-0.408,3.286-0.883c0.962-0.436,1.847-1.045,2.619-1.759c0.77-0.712,1.429-1.558,1.934-2.474
			c0.636-1.151,1.012-2.402,1.165-3.704c0.041-0.351,0.06-0.704,0.061-1.057c0.001-0.4-0.337-0.734-0.739-0.734
			C18.841,9.181,18.506,9.515,18.505,9.915z"/>
	</defs>
	<clipPath id="SVGID_2_">
		<use xlink:href="#SVGID_1_"  overflow="visible"/>
	</clipPath>
	<g clip-path="url(#SVGID_2_)">
		<defs>
			<rect id="SVGID_3_" x="-330.002" y="-15.008" width="360" height="50"/>
		</defs>
		<clipPath id="SVGID_4_">
			<use xlink:href="#SVGID_3_"  overflow="visible"/>
		</clipPath>
		<rect x="-4.998" y="-4.988" clip-path="url(#SVGID_4_)" fill="#FFFFFF" width="29.981" height="29.826"/>
	</g>
</g>
<g>
	<defs>
		<path id="SVGID_5_" d="M9.254,0.738l0.002,2.031c0.001,1.342,0.002,2.683,0.003,4.025C9.26,7.766,9.26,8.738,9.261,9.71
			c0,0.436,0,0.871-0.001,1.306c-0.001,1.258-0.002,2.515-0.003,3.771c-0.001,1.188-0.002,2.374-0.003,3.563
			c0,0.25-0.001,0.502-0.001,0.754c0,0.4,0.337,0.734,0.739,0.734c0.403,0,0.738-0.334,0.739-0.734
			c0.001-0.676,0.001-1.352,0.002-2.027c0.001-1.342,0.002-2.684,0.003-4.025c0.001-0.979,0.002-1.959,0.003-2.938
			c0-0.431,0-0.862-0.001-1.293c-0.001-1.254-0.002-2.507-0.003-3.76c-0.001-1.189-0.001-2.377-0.002-3.566
			c-0.001-0.252-0.001-0.504-0.001-0.756c0-0.4-0.336-0.734-0.739-0.734C9.591,0.004,9.254,0.338,9.254,0.738z"/>
	</defs>
	<clipPath id="SVGID_6_">
		<use xlink:href="#SVGID_5_"  overflow="visible"/>
	</clipPath>
	<g clip-path="url(#SVGID_6_)">
		<defs>
			<rect id="SVGID_7_" x="-330.002" y="-15.008" width="360" height="50"/>
		</defs>
		<clipPath id="SVGID_8_">
			<use xlink:href="#SVGID_7_"  overflow="visible"/>
		</clipPath>
		<rect x="4.253" y="-4.995" clip-path="url(#SVGID_8_)" fill="#FFFFFF" width="11.486" height="29.833"/>
	</g>
</g>
<g>
	<defs>
		<path id="SVGID_9_" d="M19.239,9.182h-1.155H15.14h-3.95H7.017H3.403H1.133H0.739C0.337,9.182,0,9.515,0,9.915
			c0,0.4,0.337,0.733,0.739,0.733h1.155h2.944h3.949h4.173h3.613h2.271h0.394c0.402,0,0.739-0.333,0.739-0.733
			C19.979,9.515,19.642,9.182,19.239,9.182z"/>
	</defs>
	<clipPath id="SVGID_10_">
		<use xlink:href="#SVGID_9_"  overflow="visible"/>
	</clipPath>
	<g clip-path="url(#SVGID_10_)">
		<defs>
			<rect id="SVGID_11_" x="-330.002" y="-15.008" width="360" height="50"/>
		</defs>
		<clipPath id="SVGID_12_">
			<use xlink:href="#SVGID_11_"  overflow="visible"/>
		</clipPath>
		<rect x="-5" y="4.181" clip-path="url(#SVGID_12_)" fill="#FFFFFF" width="29.979" height="11.467"/>
	</g>
</g>
<g>
	<defs>
		<path id="SVGID_13_" d="M10.365,18.471c-0.197-0.133-0.39-0.271-0.578-0.416c0.05,0.037,0.1,0.076,0.149,0.114
			c-0.753-0.581-1.43-1.254-2.015-2.002c0.039,0.05,0.077,0.099,0.116,0.148c-0.593-0.765-1.086-1.601-1.464-2.489
			c0.024,0.059,0.05,0.117,0.074,0.175c-0.38-0.899-0.639-1.845-0.771-2.812c0.009,0.064,0.018,0.13,0.026,0.195
			c-0.13-0.977-0.13-1.966-0.001-2.941c-0.009,0.065-0.018,0.13-0.026,0.195C6.009,7.665,6.271,6.714,6.654,5.81
			C6.63,5.868,6.604,5.926,6.58,5.985c0.374-0.873,0.859-1.696,1.443-2.447C7.984,3.587,7.946,3.636,7.907,3.686
			c0.589-0.754,1.271-1.431,2.03-2.015c-0.05,0.038-0.1,0.077-0.149,0.115c0.188-0.144,0.382-0.283,0.578-0.415
			c0.333-0.224,0.479-0.641,0.266-1.004C10.438,0.04,9.954-0.12,9.62,0.104C7.819,1.317,6.34,2.992,5.43,4.96
			C4.964,5.966,4.631,7.024,4.47,8.12C4.382,8.714,4.329,9.309,4.328,9.908c-0.001,0.593,0.055,1.18,0.138,1.768
			c0.31,2.183,1.297,4.233,2.724,5.912c0.702,0.826,1.53,1.543,2.43,2.149c0.334,0.226,0.818,0.063,1.012-0.263
			C10.845,19.111,10.698,18.694,10.365,18.471z"/>
	</defs>
	<clipPath id="SVGID_14_">
		<use xlink:href="#SVGID_13_"  overflow="visible"/>
	</clipPath>
	<g clip-path="url(#SVGID_14_)">
		<defs>
			<rect id="SVGID_15_" x="-330.002" y="-15.008" width="360" height="50"/>
		</defs>
		<clipPath id="SVGID_16_">
			<use xlink:href="#SVGID_15_"  overflow="visible"/>
		</clipPath>
		<rect x="-0.672" y="-5" clip-path="url(#SVGID_16_)" fill="#FFFFFF" width="16.404" height="29.842"/>
	</g>
</g>
<g>
	<defs>
		<path id="SVGID_17_" d="M10.365,19.737c1.808-1.218,3.285-2.907,4.191-4.884c0.465-1.014,0.797-2.075,0.956-3.178
			c0.085-0.586,0.138-1.175,0.138-1.768c0-0.6-0.056-1.194-0.141-1.788c-0.313-2.171-1.296-4.209-2.719-5.877
			c-0.701-0.822-1.527-1.535-2.425-2.139C10.032-0.12,9.549,0.04,9.355,0.368C9.141,0.73,9.287,1.147,9.62,1.371
			c0.197,0.132,0.39,0.271,0.578,0.415c-0.05-0.038-0.1-0.077-0.149-0.115c0.759,0.584,1.44,1.261,2.028,2.015
			C12.038,3.637,12,3.587,11.961,3.538c0.583,0.751,1.067,1.574,1.44,2.447c-0.025-0.059-0.05-0.117-0.075-0.175
			c0.38,0.894,0.639,1.835,0.771,2.796c-0.009-0.065-0.018-0.13-0.026-0.195c0.133,0.986,0.134,1.987,0.003,2.974
			c0.009-0.065,0.018-0.131,0.026-0.195c-0.133,0.977-0.396,1.933-0.781,2.841c0.025-0.058,0.05-0.117,0.075-0.175
			c-0.376,0.878-0.863,1.705-1.449,2.46c0.038-0.05,0.076-0.099,0.115-0.148c-0.59,0.757-1.274,1.437-2.037,2.021
			c0.05-0.037,0.1-0.076,0.149-0.114c-0.181,0.138-0.365,0.271-0.554,0.397c-0.333,0.224-0.479,0.641-0.266,1.004
			C9.547,19.801,10.031,19.963,10.365,19.737z"/>
	</defs>
	<clipPath id="SVGID_18_">
		<use xlink:href="#SVGID_17_"  overflow="visible"/>
	</clipPath>
	<g clip-path="url(#SVGID_18_)">
		<defs>
			<rect id="SVGID_19_" x="-330.002" y="-15.008" width="360" height="50"/>
		</defs>
		<clipPath id="SVGID_20_">
			<use xlink:href="#SVGID_19_"  overflow="visible"/>
		</clipPath>
		<rect x="4.254" y="-5" clip-path="url(#SVGID_20_)" fill="#FFFFFF" width="16.396" height="29.842"/>
	</g>
</g>
</svg>
