<?xml version="1.0" encoding="utf-8"?>
<!-- Generator: Adobe Illustrator 23.0.3, SVG Export Plug-In . SVG Version: 6.00 Build 0)  -->
<svg version="1.1" id="Layer_1" xmlns="http://www.w3.org/2000/svg" xmlns:xlink="http://www.w3.org/1999/xlink" x="0px" y="0px"
	 viewBox="0 0 191.7 85.4" style="enable-background:new 0 0 191.7 85.4;" xml:space="preserve">
<style type="text/css">
	.st0{fill:#242A5B;}
	.st1{display:none;fill:#242A5B;}
	.st2{font-family:'FreestyleScript-Regular';}
	.st3{font-size:101px;}
	.st4{display:none;}
	.st5{display:inline;fill:#242A5B;}
</style>
<g>
	<g>
		<polyline class="st0" points="143,7.2 158.1,7.2 165.8,27.9 173.5,7.2 187.3,7.2 187.3,51.5 175.7,51.5 175.7,30.7 169,51.5 
			161.3,51.5 155.4,30.7 155.4,51.5 143,51.5 		"/>
		<polygon class="st0" points="127.1,7.2 133.3,7.2 138.6,7.2 138.6,29.8 138.6,51.5 133.3,51.5 127.1,51.5 127.1,29.8 		"/>
		<polygon class="st0" points="80.1,6.3 80.1,19.6 100.9,19.6 80.1,38.5 80.1,51.5 121.7,51.5 121.7,38.2 99.8,38.2 121.7,19.3 
			121.7,6.3 		"/>
	</g>
</g>
<g>
	<path class="st0" d="M15.8,35.1c2.8-2.9,5.2-5.2,7.3-6.8c3.2-2.5,5.3-3.7,6.4-3.7c0.5,0,1,0.2,1.4,0.6c0.4,0.4,0.5,0.8,0.5,1.2
		c0,0.6-0.6,1.6-1.7,3.1c-1.8,2.2-3,4.1-3.7,5.7c7.7-7.7,13-11.6,15.8-11.6c0.6,0,1.1,0.2,1.5,0.5c0.5,0.4,0.7,0.9,0.7,1.5
		c0,0.9-0.7,2.1-2.1,3.6c-6.2,6.4-9.3,11.7-9.3,15.8c0,1.7,0.3,2.9,0.9,3.6l1.3,1.6c0.3,0.3,0.4,0.7,0.4,1.1c0,0.5-0.2,1-0.6,1.5
		c-0.5,0.5-1.1,0.8-1.7,0.8c-1.1,0-2.1-0.7-3-2.1c-1.1-1.6-1.7-3.6-1.7-5.8c0-3,0.9-6,2.6-9.1c0.6-1.1,1.6-2.5,3-4.3
		c-2.8,2.1-5.6,5-8.5,8.7c-2,2.5-3.7,5.3-5.3,8.4c-0.8,1.5-1.6,2.2-2.7,2.2c-1.1,0-1.7-0.6-1.7-1.9c0-1.3,0.9-4.1,2.8-8.3
		c1.1-2.4,2.4-4.9,3.9-7.6C16.5,38,12.2,43.9,9.4,51.3c-0.7,1.6-1.6,2.5-2.8,2.5c-0.5,0-1-0.2-1.3-0.6c-0.4-0.4-0.5-0.9-0.5-1.4
		c0-1.9,1.1-5.4,3.3-10.5c2.3-5.4,4.8-10.2,7.7-14.5c2-3,3.5-4.5,4.6-4.5c1,0,1.5,0.5,1.5,1.6c0,0.5-0.6,1.6-1.8,3.5
		C17.9,30.8,16.5,33.4,15.8,35.1z"/>
	<path class="st0" d="M60.8,37.7c-2.9,3.5-5.3,6-7,7.7c-3.5,3.3-6.3,4.9-8.6,4.9c-1.1,0-2-0.4-2.7-1.2c-0.5-0.7-0.7-1.5-0.7-2.5
		c0-3.6,2.1-8.3,6.3-14.2c4.3-6,7.4-9,9.3-9c0.5,0,1,0.2,1.4,0.7c0.4,0.4,0.5,0.8,0.5,1.3c0,0.7-0.2,1.4-0.6,1.9
		c-0.4,0.5-1.5,1.8-3.2,3.6c-1.9,1.9-3.6,4-5.2,6.3c-1.8,2.6-2.7,4.4-2.7,5.6c0,0.7,0.3,1,1,1c1.3,0,3.8-1.8,7.4-5.4
		c2.3-2.3,4-4.2,5.3-5.7c0.3-0.3,1.4-1.9,3.5-4.7c1.8-2.5,3-3.9,3.4-4.4c1-1.2,1.9-1.7,2.8-1.7c0.5,0,1,0.2,1.4,0.7
		c0.4,0.4,0.6,0.9,0.6,1.5c0,1-0.7,2.5-2,4.8c-1.6,2.7-3,5.3-4.3,7.6c-2.1,3.7-3.7,7-4.8,9.9c2.1-1.2,4-2.7,5.8-4.5
		c3-3,4.8-5.2,5.4-6.6c0.6-1.3,1.3-2,1.9-2c0.9,0,1.4,0.5,1.4,1.4c0,1.7-1.5,4.3-4.4,7.8c-3.6,4.1-7.9,7.7-13.1,10.6
		c-2.8,6.6-5.4,12.1-7.8,16.5c-4.6,8.1-9.4,12.1-14.3,12.1c-2,0-3.6-0.8-4.8-2.3c-1-1.2-1.4-2.7-1.4-4.5c0-5.1,3.6-10.4,10.8-15.7
		c2.1-1.6,5.2-3.6,9.4-5.9c1.7-1,3-1.7,3.9-2.3c0.6-1.5,1.5-3.5,2.7-6C58.6,42.3,59.8,39.8,60.8,37.7z M51.8,57.1
		c-3.5,1.8-7.1,4.3-10.7,7.6c-3.7,3.4-5.5,6.5-5.5,9.5c0,0.6,0.2,1.2,0.5,1.6c0.5,0.6,1.1,0.9,1.9,0.9c2.5,0,5.2-2.6,8.2-7.7
		c0.5-0.9,1.8-3.7,4-8.5C50.7,59.3,51.2,58.2,51.8,57.1z"/>
</g>
<text transform="matrix(1 0 0 1 10.1396 55.333)" class="st1 st2 st3">my</text>
<g class="st4">
	<path class="st5" d="M52.1,42v0.9c0,0.7,0.2,1.3,0.5,1.9c0.8,1.2,2.2,1.8,4,1.8c4.1,0,8.9-3.2,14.3-9.5c1-1.1,1.8-1.6,2.4-1.6
		c0.4,0,0.7,0.2,1,0.5c0.2,0.3,0.3,0.5,0.3,0.7c0,1.3-1.6,3.5-4.7,6.5c-2.5,2.4-5.1,4.4-7.9,5.9c-2.8,1.5-5.4,2.3-7.8,2.3
		c-2.5,0-4.4-0.9-5.8-2.6c-1-1.2-1.4-2.8-1.4-4.8c0-5.6,2.6-11,7.8-16.3c4.2-4.3,7.9-6.5,11.1-6.5c0.9,0,1.6,0.3,2.3,0.8
		c0.9,0.7,1.3,1.6,1.3,2.7c0,1.7-0.8,3.9-2.4,6.4C63.8,36.4,58.8,40,52.1,42z M53.2,38.2c2.3-0.8,4.1-1.7,5.4-2.7
		c2.3-1.8,4.1-3.8,5.5-6c0.5-0.8,0.7-1.5,0.7-2.1c0-0.7-0.3-1-0.9-1c-0.9,0-2.1,0.6-3.6,1.9C57.4,30.6,55.1,33.9,53.2,38.2z"/>
</g>
</svg>
