<svg xmlns="http://www.w3.org/2000/svg" viewBox="0 0 44.9 42.7">
  <g>
    <path d="M1.9,25.5,14.7,40.6a1.4,1.4,0,0,0,2,.3h.1L42,19.7l.4-.9,1-4.7a2.2,2.2,0,0,0-.2-1.4L34,2a1.3,1.3,0,0,0-1.3-.5l-4.9.3a1.4,1.4,0,0,0-.9.3L2,23.3a1.6,1.6,0,0,0-.2,2.1c.1,0,.1,0,.1.1h0" fill="none" stroke="#5d87ff" stroke-miterlimit="10" stroke-width="2.96"/>
    <ellipse cx="32.2" cy="12.8" rx="4.1" ry="4.3" transform="translate(3.5 32.2) rotate(-55.8)" fill="none" stroke="#5d87ff" stroke-miterlimit="10" stroke-width="2"/>
    <path d="M26.1,20.2l-.6.4a5,5,0,0,1,.2,2.1,4.5,4.5,0,0,1-1.6,3.2l-.9.4a1.2,1.2,0,0,1-1.2-.7,1.7,1.7,0,0,1,0-2.1l.3-.2a1.6,1.6,0,0,0,.3-2.2,1.5,1.5,0,0,0-2.1-.3,1.7,1.7,0,0,0-.3,2.2h0a4.6,4.6,0,0,1,.9,3.6,4.9,4.9,0,0,1-1.7,3.3,3.9,3.9,0,0,1-2.6.9h-.7a4.6,4.6,0,0,1-1.9-.8l-.7.4a2,2,0,0,1-.8.4,1.1,1.1,0,0,1-1.2-.7,1.7,1.7,0,0,1,.3-2.3l.7-.6a12.3,12.3,0,0,1-.2-2A5,5,0,0,1,14,22.1a1.4,1.4,0,0,1,2,.2h.1a1.8,1.8,0,0,1-.3,2.3,1.4,1.4,0,0,0-.6,1.1,1.1,1.1,0,0,0,.3,1.1,1.2,1.2,0,0,0,1.9.3h.1a1.7,1.7,0,0,0,.2-2.2h0a5,5,0,0,1-.8-3.6,4.3,4.3,0,0,1,4.9-4,3.5,3.5,0,0,1,1.8.6l.6-.5a1.4,1.4,0,0,1,2,.2v.2h0a1.7,1.7,0,0,1-.1,2.2Z" fill="#5d87ff"/>
  </g>
</svg>
