<?xml version="1.0" encoding="utf-8"?>
<!-- Generator: Adobe Illustrator 22.0.1, SVG Export Plug-In . SVG Version: 6.00 Build 0)  -->
<svg version="1.1" id="Layer_1" xmlns="http://www.w3.org/2000/svg" xmlns:xlink="http://www.w3.org/1999/xlink" x="0px" y="0px"
	 viewBox="0 0 186 148" style="enable-background:new 0 0 186 148;" xml:space="preserve">
<style type="text/css">
	.Drop_x0020_Shadow{fill:none;}
	.Outer_x0020_Glow_x0020_5_x0020_pt{fill:none;}
	.Blue_x0020_Neon{fill:none;stroke:#8AACDA;stroke-width:7;stroke-linecap:round;stroke-linejoin:round;}
	.Chrome_x0020_Highlight{fill:url(#SVGID_1_);stroke:#FFFFFF;stroke-width:0.3629;stroke-miterlimit:1;}
	.Jive_GS{fill:#FFDD00;}
	.Alyssa_GS{fill:#A6D0E4;}
	.st0{display:none;fill:#212B60;}
	.st1{fill:none;}
	.st2{fill:#212B60;}
	.st3{fill:#5D87FF;}
</style>
<linearGradient id="SVGID_1_" gradientUnits="userSpaceOnUse" x1="0" y1="0" x2="6.123234e-17" y2="-1">
	<stop  offset="0" style="stop-color:#656565"/>
	<stop  offset="0.618" style="stop-color:#1B1B1B"/>
	<stop  offset="0.6292" style="stop-color:#545454"/>
	<stop  offset="0.9831" style="stop-color:#3E3E3E"/>
</linearGradient>
<path class="st0" d="M185.1,136.9l-29-28.9c11-15.2,7.6-36.5-7.6-47.5c-1-0.7-2-1.4-3.1-2c-8.2-39.6-47.1-65-86.8-56.8
	s-65.2,47-57,86.6c7.1,34,37.1,58.3,71.8,58.3l0,0c20.7,0,40.5-8.8,54.4-24.1l-0.4-0.3h0.8c6,0,11.9-1.6,17.1-4.6l29.5,29.4
	c1.2,1.2,3.2,1.2,4.4,0l5.8-5.8C186.3,140,186.3,138.1,185.1,136.9L185.1,136.9z M76.5,49.9c6.4-0.1,12.7-0.7,18.9-1.9
	c1.8,7.3,2.9,14.8,3.1,22.3h-22V49.9z M76.5,43.7V9c7.7,9.9,13.5,21.1,17.2,33C88,43,82.3,43.6,76.5,43.7z M70.3,43.7
	c-5.4-0.2-10.8-0.9-16.1-1.9c3.6-11.3,9-21.9,16.1-31.4V43.7z M70.3,49.9v20.5H49.4c0.2-7.6,1.3-15.2,3.1-22.6
	C58.4,49,64.3,49.6,70.3,49.9L70.3,49.9z M43.2,70.3H6.3c0.6-12.7,4.9-25,12.2-35.4c8.8,5.1,18.2,9,28,11.5
	C44.6,54.2,43.5,62.2,43.2,70.3z M43.2,76.5c0.2,7.9,1.3,15.7,3.1,23.3c-10,2.5-19.5,6.3-28.4,11.4C10.9,101,6.9,89,6.3,76.5
	L43.2,76.5z M49.4,76.5h20.8v20.1c-6,0.2-12,0.8-17.9,1.9C50.6,91.3,49.6,83.9,49.4,76.5z M70.3,102.8v33.6
	c-7.2-9.6-12.7-20.4-16.3-31.9C59.4,103.5,64.8,102.9,70.3,102.8z M76.5,102.8c5.8,0.2,11.6,0.8,17.3,1.9
	c-3.8,11.9-9.6,23.1-17.3,33L76.5,102.8z M95.8,98.8c-6.4-1.3-12.9-2-19.4-2.2V76.5h19.6C93.5,83.7,93.4,91.6,95.8,98.8z
	 M104.4,63.8c-0.5-5.8-1.5-11.5-2.9-17.1c9.6-2.4,18.9-6,27.5-10.8c4.1,6,7.2,12.7,9.1,19.7C126.3,51.9,113.3,55.1,104.4,63.8
	L104.4,63.8z M125.3,30.8c-8,4.4-16.6,7.7-25.4,9.9c-3.7-12.1-9.5-23.5-17-33.7C99.5,9.4,114.6,17.8,125.3,30.8z M65.4,6.8
	C57.8,16.9,52,28.2,48.3,40.3c-9-2.3-17.7-5.8-25.8-10.5C33.3,17.1,48.6,8.9,65.4,6.8L65.4,6.8z M21.8,116.1
	c8.3-4.6,17.1-8.1,26.3-10.3c3.7,12.3,9.5,23.8,17.2,34.1C48.3,137.9,32.7,129.4,21.8,116.1L21.8,116.1z M82.9,139.8
	c7.4-10,13.1-21.1,16.9-32.9c4.8,7.3,12.2,12.4,20.7,14.4C110.2,131.3,97,137.8,82.9,139.8z M100.3,88.2c0-15.4,12.5-28,28-28
	c15.5,0,28.1,12.5,28.1,27.9c0,15.4-12.5,28-28,28c0,0,0,0-0.1,0C112.8,116.1,100.3,103.6,100.3,88.2L100.3,88.2z M177.1,140.6
	l-26.5-26.5c0.5-0.4,1-0.9,1.5-1.4l26.4,26.4L177.1,140.6z"/>
<g>
	<path class="st1" d="M101.6,46.7c1.4,5.6,2.3,11.3,2.8,17.1c8.9-8.7,21.9-11.9,33.8-8.3c-1.9-7-5-13.6-9.1-19.6
		C120.5,40.7,111.2,44.3,101.6,46.7z"/>
	<path class="st1" d="M52.5,98.5c5.9-1.1,11.8-1.8,17.8-1.9V76.5H49.5C49.7,83.9,50.7,91.3,52.5,98.5z"/>
	<path class="st1" d="M70.3,136.3v-33.6c-5.5,0.2-10.9,0.7-16.3,1.7C57.6,116,63.1,126.7,70.3,136.3z"/>
	<path class="st1" d="M21.7,116.2c10.9,13.2,26.5,21.7,43.6,23.8c-7.7-10.3-13.5-21.9-17.3-34.1C38.8,108.1,30,111.5,21.7,116.2z"/>
	<path class="st1" d="M46.6,46.3c-9.8-2.5-19.2-6.4-28-11.4C11.2,45.3,7,57.6,6.4,70.4h36.9C43.5,62.3,44.6,54.2,46.6,46.3z"/>
	<path class="st1" d="M125.4,30.8C114.7,17.9,99.5,9.4,82.9,7c7.6,10.2,13.3,21.6,17,33.7C108.8,38.5,117.4,35.2,125.4,30.8z"/>
	<path class="st1" d="M65.3,6.9c-16.7,2-32,10.3-42.9,23c8.1,4.6,16.8,8.1,25.8,10.5C52,28.3,57.7,17,65.3,6.9z"/>
	<path class="st1" d="M76.5,9v34.7c5.8-0.1,11.6-0.7,17.2-1.7C90,30.1,84.2,18.9,76.5,9z"/>
	<path class="st1" d="M95.5,48c-6.2,1.2-12.6,1.8-18.9,1.9v20.4h22C98.4,62.8,97.4,55.3,95.5,48z"/>
	<path class="st1" d="M43.3,76.5H6.3C6.9,88.9,10.9,101,18,111.2c8.9-5.1,18.5-8.9,28.4-11.3C44.5,92.2,43.5,84.4,43.3,76.5z"/>
	<path class="st1" d="M150.6,114.1l26.5,26.4l1.4-1.4l-26.4-26.4C151.6,113.2,151.1,113.7,150.6,114.1z"/>
	<path class="st1" d="M76.5,96.6c6.5,0.2,13,0.9,19.4,2.2c-2.4-7.3-2.3-15.1,0.4-22.3H76.5V96.6z"/>
	<path class="st1" d="M128.3,60.2c-15.5,0-28,12.5-28,28s12.6,28,28,28s28-12.5,28-28l0,0C156.4,72.7,143.8,60.2,128.3,60.2z"/>
	<path class="st1" d="M120.4,121.4c-8.5-2-15.9-7.2-20.7-14.4c-3.7,11.8-9.4,22.9-16.8,32.9C97.1,137.8,110.2,131.3,120.4,121.4z"/>
	<path class="st1" d="M70.3,43.7V10.5c-7.1,9.5-12.5,20-16.1,31.3C59.5,42.8,64.9,43.4,70.3,43.7z"/>
	<path class="st1" d="M76.5,102.8v35.1c7.7-9.9,13.6-21.1,17.3-33C88.1,103.7,82.3,103,76.5,102.8z"/>
	<path class="st1" d="M49.5,70.3h20.8V49.9c-6-0.2-11.9-0.9-17.8-2.1C50.7,55.2,49.7,62.7,49.5,70.3z"/>
	<path class="st2" d="M82.9,139.8c7.4-10,13.1-21.1,16.8-32.9c-1.6-2.5-2.9-5.2-3.9-8c-6.4-1.3-12.9-2-19.4-2.2V76.5h19.6
		c1.8-4.8,4.6-9.2,8.3-12.7c-0.5-5.8-1.5-11.5-2.9-17.1c9.6-2.4,18.9-6,27.5-10.8c4.1,6,7.2,12.7,9.2,19.7c2.5,0.8,4.9,1.8,7.2,3.1
		c-8.2-39.6-47-65.1-86.7-57S-6.6,48.6,1.6,88.2c7,34,37.1,58.5,71.9,58.5l0,0c20.7,0,40.5-8.8,54.4-24.1l0.2-0.3
		c-2.6-0.1-5.2-0.4-7.7-0.9C110.2,131.3,97,137.8,82.9,139.8z M125.4,30.8c-8,4.4-16.6,7.7-25.4,9.9c-3.7-12.1-9.5-23.5-17-33.7
		C99.5,9.4,114.7,17.8,125.4,30.8z M76.5,9c7.7,9.9,13.5,21.1,17.2,33c-5.7,1-11.5,1.6-17.2,1.7L76.5,9z M76.5,49.9
		c6.4-0.1,12.7-0.7,18.9-1.9c1.8,7.3,2.9,14.8,3.1,22.3h-22V49.9z M65.3,6.9C57.7,17,52,28.3,48.2,40.4c-9-2.3-17.7-5.8-25.8-10.5
		C33.3,17.1,48.6,8.9,65.3,6.9z M18.6,34.9c8.8,5.1,18.2,9,28,11.5c-2,7.8-3.1,15.9-3.3,24H6.3C6.9,57.6,11.2,45.3,18.6,34.9z
		 M18,111.2C11,101,6.9,89,6.4,76.5h36.9c0.2,7.9,1.3,15.7,3.1,23.3C36.4,102.3,26.9,106.2,18,111.2L18,111.2z M21.8,116.2
		c8.3-4.6,17.1-8.1,26.3-10.3c3.7,12.3,9.6,23.8,17.2,34.1C48.3,137.9,32.7,129.4,21.8,116.2L21.8,116.2z M70.3,136.3
		c-7.2-9.6-12.7-20.4-16.3-31.9c5.4-1,10.8-1.6,16.3-1.7V136.3z M70.3,96.6c-6,0.2-12,0.8-17.9,1.9c-1.8-7.2-2.8-14.6-3-22h20.9
		V96.6z M70.3,70.3H49.5c0.2-7.6,1.3-15.2,3.1-22.6c5.9,1.2,11.8,1.8,17.8,2.1L70.3,70.3z M70.3,43.6c-5.4-0.2-10.8-0.9-16.1-1.9
		c3.6-11.3,9-21.8,16.1-31.3V43.6z M76.5,102.8c5.8,0.2,11.6,0.8,17.3,1.9c-3.8,11.9-9.6,23.1-17.3,33L76.5,102.8z"/>
	<path class="st3" d="M185.1,136.9l-29-28.9c11.1-15.4,7.5-36.8-7.9-47.8s-36.9-7.5-47.9,7.9c-11.1,15.4-7.5,36.8,7.9,47.8
		c11,7.8,25.5,8.6,37.2,1.8l29.5,29.4c1.2,1.2,3.2,1.2,4.4,0l5.8-5.8C186.3,140.1,186.3,138.1,185.1,136.9L185.1,136.9z M100.3,88.2
		c0-15.4,12.6-28,28-28c15.5,0,28,12.5,28,28s-12.6,28-28,28c0,0,0,0,0,0C112.9,116.1,100.3,103.6,100.3,88.2z M177.1,140.5
		l-26.5-26.4c0.5-0.4,1-0.9,1.5-1.4l26.4,26.4L177.1,140.5z"/>
	<path class="st3" d="M141.7,85.8h-10.3V75.5c0-1.7-1.4-3.1-3.1-3.1c-1.7,0-3.1,1.4-3.1,3.1v10.3h-10.3c-1.7,0-3.1,1.4-3.1,3.1
		s1.4,3.1,3.1,3.1h10.3v10.3c0,1.7,1.4,3.1,3.1,3.1c1.7,0,3.1-1.4,3.1-3.1V92h10.3c1.7,0,3.1-1.4,3.1-3.1S143.5,85.8,141.7,85.8z"/>
</g>
</svg>
